:::JOIN  http://www.SceneTime.com    Sign up is OPEN for now!::::....

....::::JOIN  http://www.SceneTime.com   Sign up is OPEN for now!::::....

.....:::::JOIN  http://www.SceneTime.com   Sign up is OPEN for now!::::....

......::::::JOIN  http://www.SceneTime.com   Sign up is OPEN for now!::::....


**********************************************************************************

Love for All and Sharing is the first step to solving all the problems of humanity.

Website I want to share.
             
                                               
http://SceneTime.com


- Latest Releases
- Super Fast Speeds
- Good Community
- Competitions with prizes (yay)
- Love for the Scene


Credit to EVERYONE for sharing and seeding back
especially to SceneTime where i get all my
downloads.

For more info about this release, open .NFO file with notepad !!!
Support scenetime to grow faster.

*************************************************************************************

....::::JOIN   http://www.SceneTime.com    Sign up is OPEN for now!::::....
....::::JOIN   http://www.SceneTime.com    Sign up is OPEN for now!::::....




Genre:Action | Adventure | Sci-Fi
Language:English
IMDb:http://www.imdb.com/title/tt1408101/
Source:JUSTiCE Thanks
Sample:Never
Encoder:Tony



Format                                   : AVI
Format/Info                              : Audio Video Interleave
File size                                : 1.06 GiB
Duration                                 : 2h 2mn
Overall bit rate                         : 1 238 Kbps

Video
ID                                       : 0
Format                                   : MPEG-4 Visual
Format profile                           : Advanced Simple@L5
Format settings, BVOP                    : 2
Format settings, QPel                    : No
Format settings, GMC                     : No warppoints
Format settings, Matrix                  : Default (H.263)
Muxing mode                              : Packed bitstream
Codec ID                                 : XVID
Codec ID/Hint                            : XviD
Duration                                 : 2h 2mn
Bit rate                                 : 1 036 Kbps
Width                                    : 640 pixels
Height                                   : 280 pixels
Display aspect ratio                     : 2.25:1
Frame rate                               : 25.000 fps
Color space                              : YUV
Chroma subsampling                       : 4:2:0
Bit depth                                : 8 bits
Scan type                                : Progressive
Compression mode                         : Lossy
Bits/(Pixel*Frame)                       : 0.231
Stream size                              : 908 MiB (84%)
Writing library                          : XviD 64

Audio
ID                                       : 1
Format                                   : AC-3
Format/Info                              : Audio Coding 3
Mode extension                           : CM (complete main)
Codec ID                                 : 2000
Duration                                 : 2h 2mn
Bit rate mode                            : Constant
Bit rate                                 : 192 Kbps
Channel(s)                               : 2 channels
Channel positions                        : Front: L R
Sampling rate                            : 48.0 KHz
Bit depth                                : 16 bits
Compression mode                         : Lossy
Stream size                              : 168 MiB (16%)
Alignment                                : Split accross interleaves
Interleave, duration                     : 40 ms (1.00 video frame)
Interleave, preload duration             : 500 ms
